# xmcd
# 
# Track frame offsets:
#     150
#     20627
#     31100
#     45765
#     56600
#     67515
#     85742
#     98077
#     112065
#     129752
#     150615
#     162520
#     179095
#     195142
# 
# Disc length: 2838
# 
# Revision: 0
# Processed by: cddbd v1.5.2PL0 Copyright (c) Steve Scherf et al.
# Submitted via: BonkEnc v1.0.8
# 
DISCID=a00b140e
DTITLE=Flying Emus - Thankyou and Goodnight
DYEAR=1990
DGENRE=Country
TTITLE0=Mystery Train
TTITLE1=Uncle Pen
TTITLE2=Ain't No Letters
TTITLE3=Gotta Lotta Rhythm
TTITLE4=Bayou Jubilee
TTITLE5=Wayfaring Stranger
TTITLE6=These Boots Are Made For Walking
TTITLE7=Dixie Breakdown
TTITLE8=I Don't Know About That
TTITLE9=It's A Sunburnt Country
TTITLE10=I'll Never Get Out Of This World Alive
TTITLE11=Darling Street
TTITLE12=Broken Dreams (Southbound)
TTITLE13=Somthing Somewhere - Say Old man
EXTD=
EXTT0=
EXTT1=
EXTT2=
EXTT3=
EXTT4=
EXTT5=
EXTT6=
EXTT7=
EXTT8=
EXTT9=
EXTT10=
EXTT11=
EXTT12=
EXTT13=
PLAYORDER=
